<?xml version="1.0" encoding="utf-8"?>
<!-- Generator: Adobe Illustrator 19.2.1, SVG Export Plug-In . SVG Version: 6.00 Build 0)  -->
<svg version="1.1" id="Layer_1" xmlns="http://www.w3.org/2000/svg" xmlns:xlink="http://www.w3.org/1999/xlink" x="0px" y="0px"
	 viewBox="0 0 80 60" style="enable-background:new 0 0 80 60;" xml:space="preserve">
<style type="text/css">
	.st0{fill:#FFFFFF;}
</style>
<g>
	<g>
		<g>
			<path class="st0" d="M43.1,24.6c-1-1.7-2-3.5-3.1-5.2c0.1,0.2,0,1,0,1.3s-0.1,1,0,1.2c1,1.7,2,3.5,3.1,5.2c-0.1-0.2,0-1,0-1.2
				C43.1,25.6,43.3,24.9,43.1,24.6L43.1,24.6z"/>
		</g>
	</g>
	<g>
		<g>
			<path class="st0" d="M37.1,27.1c1-1.7,2-3.5,2.9-5.2c0.1-0.3,0-1,0-1.2c0-0.3-0.2-1,0-1.3c-1,1.7-2,3.5-2.9,5.2
				c-0.1,0.3,0,1,0,1.2C37.1,26.1,37.3,26.8,37.1,27.1L37.1,27.1z"/>
		</g>
	</g>
	<polygon class="st0" points="40,19.5 41.1,21.2 39,21.2 	"/>
	<g>
		<g>
			<g>
				<path class="st0" d="M46.7,24.6c-2.2-3.7-4.4-7.5-6.6-11.2c0.4,0.6-0.4,1.9,0,2.5c2.2,3.7,4.4,7.5,6.6,11.2
					C46.3,26.5,47,25.2,46.7,24.6L46.7,24.6z"/>
			</g>
		</g>
		<g>
			<g>
				<path class="st0" d="M33.7,27.1c2.1-3.7,4.2-7.4,6.3-11.2c0.4-0.6-0.4-1.9,0-2.5c-2.1,3.7-4.2,7.4-6.3,11.2
					C33.4,25.2,34.1,26.4,33.7,27.1L33.7,27.1z"/>
			</g>
		</g>
		<polygon class="st0" points="40,13.5 41.1,15.2 39,15.2 		"/>
	</g>
</g>
</svg>
