<?xml version="1.0" encoding="utf-8"?>
<!-- Generator: Adobe Illustrator 19.2.1, SVG Export Plug-In . SVG Version: 6.00 Build 0)  -->
<svg version="1.1" id="Layer_1" xmlns="http://www.w3.org/2000/svg" xmlns:xlink="http://www.w3.org/1999/xlink" x="0px" y="0px"
	 viewBox="0 0 80 60" style="enable-background:new 0 0 80 60;" xml:space="preserve">
<style type="text/css">
	.st0{fill:#333333;}
	.st1{fill:#FFFFFF;}
</style>
<g>
	<path class="st0" d="M58.2,41c5.4,0,9-5.8,6.5-10.6L54.2,10.1C48-2,32.3-2,26.1,10.1L15.6,30.4c-2.5,4.8,1,10.6,6.5,10.6H58.2z"/>
	<rect x="0.2" y="39.7" class="st0" width="80" height="22"/>
</g>
<path class="st0" d="M17,29.2c-0.5-0.4-0.7-0.2-1.4,1.1c-4.7,8.5-6.3,8.9-8.4,9.5c-1.9,0.6-4.4,1.3-7,1.1h18.2c0.8,0,4.1,0.7,3.7,0
	L17,29.2z"/>
<path class="st0" d="M63.3,29.2c0.5-0.4,0.7-0.2,1.4,1.1c4.7,8.5,6.3,8.9,8.4,9.5c1.9,0.6,4.4,1.3,7,1.1H62c-0.8,0-4.1,0.7-3.7,0
	L63.3,29.2z"/>
<g>
	<g>
		<g>
			<path class="st1" d="M42.6,29.6c-1-1.7-2-3.5-3.1-5.2c0.1,0.2,0,1,0,1.3s-0.1,1,0,1.2c1,1.7,2,3.5,3.1,5.2c-0.1-0.2,0-1,0-1.2
				C42.6,30.6,42.8,29.9,42.6,29.6L42.6,29.6z"/>
		</g>
	</g>
	<g>
		<g>
			<path class="st1" d="M36.6,32.1c1-1.7,2-3.5,2.9-5.2c0.1-0.3,0-1,0-1.2c0-0.3-0.2-1,0-1.3c-1,1.7-2,3.5-2.9,5.2
				c-0.1,0.3,0,1,0,1.2C36.6,31.1,36.8,31.8,36.6,32.1L36.6,32.1z"/>
		</g>
	</g>
	<polygon class="st1" points="39.5,24.5 40.6,26.2 38.5,26.2 	"/>
	<g>
		<g>
			<g>
				<path class="st1" d="M46.2,29.6c-2.2-3.7-4.4-7.5-6.6-11.2c0.4,0.6-0.4,1.9,0,2.5c2.2,3.7,4.4,7.5,6.6,11.2
					C45.8,31.5,46.5,30.2,46.2,29.6L46.2,29.6z"/>
			</g>
		</g>
		<g>
			<g>
				<path class="st1" d="M33.2,32.1c2.1-3.7,4.2-7.4,6.3-11.2c0.4-0.6-0.4-1.9,0-2.5c-2.1,3.7-4.2,7.4-6.3,11.2
					C32.9,30.2,33.6,31.4,33.2,32.1L33.2,32.1z"/>
			</g>
		</g>
		<polygon class="st1" points="39.5,18.5 40.6,20.2 38.5,20.2 		"/>
	</g>
</g>
</svg>
