<?xml version="1.0" encoding="utf-8"?>
<!-- Generator: Adobe Illustrator 19.2.1, SVG Export Plug-In . SVG Version: 6.00 Build 0)  -->
<svg version="1.1" id="Layer_1" xmlns="http://www.w3.org/2000/svg" xmlns:xlink="http://www.w3.org/1999/xlink" x="0px" y="0px"
	 viewBox="0 0 80 60" style="enable-background:new 0 0 80 60;" xml:space="preserve">
<style type="text/css">
	.st0{fill:#262526;}
</style>
<g>
	<path class="st0" d="M58.2,41c5.4,0,9-5.8,6.5-10.6L54.2,10.1C48-2,32.3-2,26.1,10.1L15.6,30.4c-2.5,4.8,1,10.6,6.5,10.6H58.2z"/>
	<rect x="0.2" y="39.7" class="st0" width="80" height="22"/>
</g>
<path class="st0" d="M17,29.2c-0.5-0.4-0.7-0.2-1.4,1.1c-4.7,8.5-6.3,8.9-8.4,9.5c-1.9,0.6-4.4,1.3-7,1.1h18.2c0.8,0,4.1,0.7,3.7,0
	L17,29.2z"/>
<path class="st0" d="M63.3,29.2c0.5-0.4,0.7-0.2,1.4,1.1c4.7,8.5,6.3,8.9,8.4,9.5c1.9,0.6,4.4,1.3,7,1.1H62c-0.8,0-4.1,0.7-3.7,0
	L63.3,29.2z"/>
</svg>
